<mxfile host="app.diagrams.net" modified="2020-07-24T03:34:37.549Z" agent="5.0 (Macintosh; Intel Mac OS X 10_15_5) AppleWebKit/537.36 (KHTML, like Gecko) Chrome/84.0.4147.89 Safari/537.36" etag="G8XhQ7CF5VfJ_W0jYSVt" version="13.5.1" type="github">
  <diagram id="VxY00Lw0QuELX6-MsShm" name="Page-1">
    <mxGraphModel dx="1426" dy="706" grid="1" gridSize="10" guides="1" tooltips="1" connect="1" arrows="1" fold="1" page="1" pageScale="1" pageWidth="827" pageHeight="1169" math="0" shadow="0">
      <root>
        <mxCell id="0" />
        <mxCell id="1" parent="0" />
        <mxCell id="u9N3UZog-4QXZy4vEoHT-1" value="WebView" style="rounded=1;whiteSpace=wrap;html=1;" vertex="1" parent="1">
          <mxGeometry x="340" y="530" width="60" height="40" as="geometry" />
        </mxCell>
        <mxCell id="u9N3UZog-4QXZy4vEoHT-2" value="" style="endArrow=classic;startArrow=classic;html=1;entryX=0.5;entryY=1;entryDx=0;entryDy=0;" edge="1" parent="1" source="u9N3UZog-4QXZy4vEoHT-5" target="u9N3UZog-4QXZy4vEoHT-1">
          <mxGeometry width="50" height="50" relative="1" as="geometry">
            <mxPoint x="370" y="670" as="sourcePoint" />
            <mxPoint x="365" y="580" as="targetPoint" />
            <Array as="points" />
          </mxGeometry>
        </mxCell>
        <mxCell id="u9N3UZog-4QXZy4vEoHT-3" value="&lt;ul style=&quot;font-size: 11px&quot;&gt;&lt;li&gt;&lt;font style=&quot;font-size: 11px&quot;&gt;UIWebView&lt;/font&gt;&lt;/li&gt;&lt;li&gt;WKWebView&lt;/li&gt;&lt;li&gt;WebView&lt;/li&gt;&lt;/ul&gt;" style="text;strokeColor=none;fillColor=none;html=1;whiteSpace=wrap;verticalAlign=middle;overflow=hidden;" vertex="1" parent="1">
          <mxGeometry x="220" y="515" width="120" height="70" as="geometry" />
        </mxCell>
        <mxCell id="u9N3UZog-4QXZy4vEoHT-4" value="JS" style="rounded=1;whiteSpace=wrap;html=1;" vertex="1" parent="1">
          <mxGeometry x="340" y="310" width="120" height="30" as="geometry" />
        </mxCell>
        <mxCell id="u9N3UZog-4QXZy4vEoHT-5" value="" style="html=1;verticalLabelPosition=bottom;labelBackgroundColor=#ffffff;verticalAlign=top;shadow=0;dashed=0;strokeWidth=1;shape=mxgraph.ios7.misc.iphone;fillColor=#ffffff;strokeColor=#c0c0c0;" vertex="1" parent="1">
          <mxGeometry x="360" y="600" width="20" height="40" as="geometry" />
        </mxCell>
        <mxCell id="u9N3UZog-4QXZy4vEoHT-6" value="JSBridge" style="rounded=1;whiteSpace=wrap;html=1;fillColor=#d5e8d4;strokeColor=#82b366;" vertex="1" parent="1">
          <mxGeometry x="340" y="360" width="120" height="40" as="geometry" />
        </mxCell>
        <mxCell id="u9N3UZog-4QXZy4vEoHT-7" value="iFrame" style="rounded=1;whiteSpace=wrap;html=1;" vertex="1" parent="1">
          <mxGeometry x="340" y="420" width="50" height="30" as="geometry" />
        </mxCell>
        <mxCell id="u9N3UZog-4QXZy4vEoHT-8" value="NativeBridge" style="rounded=1;whiteSpace=wrap;html=1;fillColor=#d5e8d4;strokeColor=#82b366;" vertex="1" parent="1">
          <mxGeometry x="340" y="470" width="120" height="40" as="geometry" />
        </mxCell>
        <mxCell id="u9N3UZog-4QXZy4vEoHT-9" value="Plugins" style="rounded=1;whiteSpace=wrap;html=1;fillColor=#d5e8d4;strokeColor=#82b366;" vertex="1" parent="1">
          <mxGeometry x="410" y="530" width="50" height="40" as="geometry" />
        </mxCell>
        <mxCell id="u9N3UZog-4QXZy4vEoHT-10" value="" style="endArrow=classic;startArrow=classic;html=1;" edge="1" parent="1">
          <mxGeometry width="50" height="50" relative="1" as="geometry">
            <mxPoint x="400" y="360" as="sourcePoint" />
            <mxPoint x="400" y="340" as="targetPoint" />
            <Array as="points">
              <mxPoint x="400" y="350" />
            </Array>
          </mxGeometry>
        </mxCell>
        <mxCell id="u9N3UZog-4QXZy4vEoHT-11" value="" style="endArrow=classic;startArrow=classic;html=1;" edge="1" parent="1">
          <mxGeometry width="50" height="50" relative="1" as="geometry">
            <mxPoint x="430" y="420" as="sourcePoint" />
            <mxPoint x="430" y="400" as="targetPoint" />
          </mxGeometry>
        </mxCell>
        <mxCell id="u9N3UZog-4QXZy4vEoHT-12" value="" style="endArrow=classic;html=1;exitX=0.198;exitY=1.01;exitDx=0;exitDy=0;exitPerimeter=0;" edge="1" parent="1" source="u9N3UZog-4QXZy4vEoHT-6">
          <mxGeometry width="50" height="50" relative="1" as="geometry">
            <mxPoint x="363.5" y="400" as="sourcePoint" />
            <mxPoint x="364" y="420" as="targetPoint" />
          </mxGeometry>
        </mxCell>
        <mxCell id="u9N3UZog-4QXZy4vEoHT-13" value="&lt;span style=&quot;white-space: normal&quot;&gt;JSContext&lt;/span&gt;" style="rounded=1;whiteSpace=wrap;html=1;gradientColor=none;" vertex="1" parent="1">
          <mxGeometry x="400" y="420" width="60" height="30" as="geometry" />
        </mxCell>
        <mxCell id="u9N3UZog-4QXZy4vEoHT-14" value="" style="endArrow=classic;startArrow=classic;html=1;" edge="1" parent="1">
          <mxGeometry width="50" height="50" relative="1" as="geometry">
            <mxPoint x="430" y="470" as="sourcePoint" />
            <mxPoint x="430" y="450" as="targetPoint" />
          </mxGeometry>
        </mxCell>
        <mxCell id="u9N3UZog-4QXZy4vEoHT-15" value="" style="endArrow=classic;html=1;" edge="1" parent="1">
          <mxGeometry width="50" height="50" relative="1" as="geometry">
            <mxPoint x="366" y="450" as="sourcePoint" />
            <mxPoint x="365.5" y="470" as="targetPoint" />
            <Array as="points">
              <mxPoint x="365.5" y="470" />
            </Array>
          </mxGeometry>
        </mxCell>
        <mxCell id="u9N3UZog-4QXZy4vEoHT-16" value="" style="endArrow=classic;startArrow=classic;html=1;" edge="1" parent="1">
          <mxGeometry width="50" height="50" relative="1" as="geometry">
            <mxPoint x="365" y="530" as="sourcePoint" />
            <mxPoint x="365" y="510" as="targetPoint" />
          </mxGeometry>
        </mxCell>
        <mxCell id="u9N3UZog-4QXZy4vEoHT-17" value="" style="endArrow=classic;html=1;exitX=0.5;exitY=1;exitDx=0;exitDy=0;entryX=1.13;entryY=0.37;entryDx=0;entryDy=0;entryPerimeter=0;" edge="1" parent="1" source="u9N3UZog-4QXZy4vEoHT-9" target="u9N3UZog-4QXZy4vEoHT-5">
          <mxGeometry width="50" height="50" relative="1" as="geometry">
            <mxPoint x="420" y="640" as="sourcePoint" />
            <mxPoint x="470" y="590" as="targetPoint" />
            <Array as="points">
              <mxPoint x="435" y="615" />
            </Array>
          </mxGeometry>
        </mxCell>
        <mxCell id="u9N3UZog-4QXZy4vEoHT-18" value="" style="endArrow=classic;html=1;" edge="1" parent="1">
          <mxGeometry width="50" height="50" relative="1" as="geometry">
            <mxPoint x="435" y="510" as="sourcePoint" />
            <mxPoint x="435" y="530" as="targetPoint" />
          </mxGeometry>
        </mxCell>
        <mxCell id="u9N3UZog-4QXZy4vEoHT-19" value="&lt;span style=&quot;font-size: 11px&quot;&gt;Compatibility&lt;/span&gt;" style="strokeWidth=1;shadow=0;dashed=0;align=center;html=1;shape=mxgraph.mockup.text.callout;linkText=;textSize=17;textColor=#666666;callDir=NW;callStyle=line;fontSize=17;fontColor=#666666;align=left;verticalAlign=top;strokeColor=#666666;gradientColor=none;" vertex="1" parent="1">
          <mxGeometry x="260" y="395" width="80" height="40" as="geometry" />
        </mxCell>
        <mxCell id="u9N3UZog-4QXZy4vEoHT-20" value="&lt;font style=&quot;font-size: 10px&quot;&gt;&lt;span style=&quot;color: rgb(102 , 102 , 102)&quot;&gt;&amp;nbsp; &amp;nbsp; &amp;nbsp; &amp;nbsp; &amp;nbsp; &amp;nbsp; &amp;nbsp;&lt;/span&gt;&lt;font style=&quot;color: rgb(102 , 102 , 102) ; text-align: justify ; font-size: 10px&quot;&gt;&lt;span style=&quot;color: rgb(0 , 0 , 0) ; text-align: center ; white-space: normal&quot;&gt;Runtime/&lt;/span&gt;&lt;span style=&quot;color: rgb(0 , 0 , 0) ; text-align: center ; white-space: normal ; background-color: rgb(255 , 255 , 255) ; font-family: &amp;#34;verdana&amp;#34; , &amp;#34;arial&amp;#34; , &amp;#34;helvetica&amp;#34; , sans-serif&quot;&gt;Reflection&lt;/span&gt;&lt;/font&gt;&lt;/font&gt;" style="text;html=1;resizable=0;points=[];autosize=1;align=left;verticalAlign=top;spacingTop=-4;" vertex="1" parent="1">
          <mxGeometry x="450" y="550" width="140" height="20" as="geometry" />
        </mxCell>
        <mxCell id="u9N3UZog-4QXZy4vEoHT-21" value="" style="endArrow=none;html=1;" edge="1" parent="1">
          <mxGeometry width="50" height="50" relative="1" as="geometry">
            <mxPoint x="460" y="555" as="sourcePoint" />
            <mxPoint x="550" y="570" as="targetPoint" />
            <Array as="points">
              <mxPoint x="490" y="570" />
            </Array>
          </mxGeometry>
        </mxCell>
      </root>
    </mxGraphModel>
  </diagram>
</mxfile>
